<?xml version="1.0" standalone="no"?>
<!DOCTYPE svg PUBLIC "-//W3C//DTD SVG 20010904//EN"
 "http://www.w3.org/TR/2001/REC-SVG-20010904/DTD/svg10.dtd">
<svg version="1.0" xmlns="http://www.w3.org/2000/svg"
 width="2194.000000pt" height="2194.000000pt" viewBox="0 0 2194.000000 2194.000000"
 preserveAspectRatio="xMidYMid meet">
<metadata>
Created by potrace 1.11, written by Peter Selinger 2001-2013
</metadata>
<g transform="translate(0.000000,2194.000000) scale(0.100000,-0.100000)"
fill="#000000" stroke="none">
<path d="M18 14159 c-7 -5 -10 -684 -10 -2175 0 -1193 1 -2184 1 -2202 l1 -32
572 2 573 3 1 770 c1 424 2 771 3 773 2 4 152 -109 272 -205 444 -356 705
-690 883 -1135 30 -75 58 -153 62 -172 5 -30 11 -36 33 -37 32 -1 1077 -1
1107 0 21 1 20 3 -13 94 -193 526 -401 892 -697 1231 -137 157 -320 326 -474
439 l-33 25 68 6 c252 26 455 101 633 234 25 19 95 81 157 138 111 103 189
202 251 317 40 73 97 242 113 332 14 79 18 281 7 365 -27 208 -102 417 -212
585 -231 353 -579 576 -993 636 -84 13 -2286 20 -2305 8z m1993 -957 c263 -86
414 -363 335 -613 -27 -86 -40 -111 -86 -171 -62 -80 -153 -143 -255 -173 -53
-16 -108 -18 -445 -19 -212 -1 -389 -1 -395 1 -7 2 -10 173 -9 491 1 268 2
493 3 499 1 10 89 12 394 9 369 -3 396 -4 458 -24z"/>
<path d="M5645 14108 c-88 -6 -197 -21 -260 -35 -11 -2 -33 -6 -50 -9 -55 -10
-239 -65 -320 -97 -183 -71 -408 -196 -526 -291 -14 -12 -40 -32 -59 -46 -125
-94 -307 -286 -417 -440 -63 -89 -163 -259 -203 -345 -56 -122 -127 -322 -144
-405 -3 -14 -12 -56 -20 -95 -16 -74 -22 -114 -35 -235 -9 -82 -6 -392 4 -455
3 -22 10 -67 16 -100 38 -243 95 -419 216 -660 191 -380 519 -716 908 -930 39
-22 72 -43 73 -47 2 -4 10 -8 17 -8 7 0 49 -15 92 -33 165 -71 400 -139 528
-153 33 -3 62 -8 65 -9 8 -5 229 -18 295 -18 68 1 227 11 265 18 14 2 45 7 70
10 25 4 74 13 110 21 36 9 74 17 86 20 57 11 220 67 314 107 185 79 338 170
500 295 89 69 285 259 335 326 17 21 40 50 53 65 47 55 152 220 204 321 113
217 177 406 223 655 27 146 36 368 22 556 -24 328 -144 696 -314 962 -24 37
-43 70 -43 72 0 5 -87 123 -133 180 -66 82 -225 240 -317 314 -225 181 -441
298 -722 392 -48 15 -99 31 -115 34 -15 2 -43 9 -61 14 -18 5 -35 10 -37 10
-3 0 -29 4 -58 10 -151 30 -383 42 -562 29z m376 -908 c288 -52 563 -199 738
-394 14 -15 36 -39 49 -53 31 -34 102 -131 102 -139 0 -4 6 -15 14 -23 14 -16
58 -100 94 -181 21 -48 67 -201 78 -260 17 -100 21 -157 18 -280 -1 -74 -5
-146 -8 -160 -3 -14 -13 -59 -22 -100 -129 -579 -650 -1001 -1254 -1015 -112
-2 -125 3 -127 53 -6 101 -68 227 -150 304 -204 193 -302 312 -397 487 -31 57
-56 107 -56 110 0 3 -14 40 -31 81 -29 73 -74 232 -84 301 -56 389 12 749 200
1068 47 79 54 86 112 112 34 16 94 38 135 50 40 11 80 23 88 25 99 29 372 37
501 14z"/>
<path d="M14911 14110 c-4 -3 -17 -34 -30 -70 -13 -36 -29 -78 -36 -95 -7 -16
-23 -57 -35 -90 -13 -33 -30 -80 -40 -105 -9 -25 -43 -112 -74 -195 -31 -82
-61 -159 -66 -170 -12 -30 -74 -191 -215 -560 -168 -440 -194 -503 -195 -481
0 31 -7 14 -14 -34 -5 -34 -125 -368 -175 -485 -20 -45 -163 -419 -188 -488
-23 -66 -103 -271 -118 -304 -8 -17 -15 -34 -15 -37 0 -7 -64 -175 -80 -211
-5 -11 -68 -175 -140 -365 -72 -190 -136 -354 -141 -365 -5 -11 -45 -114 -90
-230 -44 -115 -83 -216 -86 -222 -4 -10 123 -13 616 -13 l621 0 11 28 c16 39
123 333 205 559 44 122 74 193 84 195 8 2 375 3 815 3 l800 0 73 -185 c41
-102 78 -194 83 -205 5 -11 42 -103 83 -205 l74 -185 626 -3 c673 -2 644 -4
616 46 -5 9 -68 175 -140 367 -72 193 -143 384 -159 425 -16 41 -71 185 -121
320 -51 135 -109 290 -130 345 -21 55 -60 156 -85 225 -26 69 -108 287 -182
485 -75 198 -146 387 -158 420 -13 33 -58 152 -100 265 -43 113 -88 232 -100
265 -38 100 -235 625 -266 707 -16 43 -43 115 -60 160 -17 46 -35 92 -40 103
-5 11 -18 47 -29 80 -12 33 -25 69 -30 80 -5 11 -26 65 -46 120 -20 55 -39
102 -41 105 -6 6 -1273 7 -1282 0z m632 -1705 c19 -49 65 -171 102 -270 37
-99 86 -229 110 -290 97 -250 149 -383 171 -442 l24 -62 -24 8 c-28 11 -138 7
-186 -7 -53 -16 -151 -40 -190 -46 -40 -7 -323 -8 -342 -1 -7 2 -26 6 -43 9
-16 2 -51 9 -76 16 l-47 12 20 51 c10 29 84 232 164 452 80 220 160 441 179
490 18 50 43 121 56 158 27 79 19 87 82 -78z"/>
<path d="M17980 11863 l0 -2253 38 0 c396 -2 1830 1 1864 4 152 14 348 53 477
96 524 171 925 489 1231 975 65 103 155 274 175 335 1 3 6 16 12 30 74 178
126 395 148 620 6 58 7 358 1 386 -2 11 -7 47 -10 80 -25 232 -121 532 -247
770 -48 93 -161 272 -200 318 -113 137 -152 181 -209 237 -188 184 -377 319
-610 434 -235 117 -457 180 -740 212 -25 3 -469 6 -987 7 l-943 1 0 -2252z
m1655 1264 c17 -3 50 -9 75 -13 25 -4 47 -8 50 -9 75 -17 73 -15 65 -49 -17
-68 -14 -202 4 -262 22 -70 39 -110 62 -144 25 -37 105 -197 128 -258 79 -203
114 -389 115 -617 1 -193 -3 -237 -40 -410 -21 -103 -95 -299 -152 -405 -67
-126 -204 -318 -245 -344 -12 -8 -60 -18 -107 -22 -133 -11 -421 -10 -428 1
-8 12 -9 2513 -2 2525 3 4 19 10 35 12 44 5 405 1 440 -5z"/>
<path d="M7570 14074 c0 0 35 -88 79 -195 43 -107 106 -264 140 -349 34 -85
66 -164 71 -175 6 -11 64 -155 130 -320 66 -165 125 -309 130 -320 5 -11 62
-150 126 -310 64 -159 121 -301 127 -315 6 -14 11 -27 12 -30 1 -3 7 -18 13
-33 7 -16 12 -30 12 -33 0 -2 8 -23 19 -47 24 -55 21 -48 178 -436 74 -185
141 -349 148 -366 7 -16 32 -77 55 -135 23 -58 46 -114 50 -125 5 -11 23 -56
41 -100 17 -44 37 -93 44 -110 7 -16 31 -75 53 -130 99 -247 213 -532 221
-550 5 -11 16 -36 25 -57 9 -20 16 -39 16 -43 0 -3 9 -25 19 -48 10 -23 31
-73 46 -112 15 -38 31 -74 35 -78 7 -8 1139 -12 1147 -3 4 4 17 51 29 106 3
14 14 59 24 100 34 130 162 654 166 679 3 14 20 86 39 160 19 75 48 192 64
261 17 69 58 238 91 375 34 138 72 293 84 344 12 52 25 90 29 85 3 -6 22 -78
42 -160 20 -82 54 -223 76 -314 22 -91 63 -257 90 -370 27 -113 61 -252 75
-309 14 -57 27 -111 29 -120 2 -9 13 -54 25 -101 12 -47 23 -92 25 -100 2 -8
8 -35 15 -60 7 -25 14 -56 17 -70 2 -14 11 -52 20 -85 8 -33 16 -67 18 -75 2
-8 13 -53 25 -100 12 -47 23 -93 25 -103 7 -35 36 -141 39 -144 8 -8 1139 -4
1146 3 4 5 65 151 135 324 203 504 291 721 380 940 157 389 454 1122 497 1230
16 41 34 84 39 95 4 11 29 72 54 135 25 63 50 124 55 135 5 11 57 139 115 285
100 249 123 306 145 355 5 11 19 45 30 75 11 30 25 64 30 75 5 11 30 72 55
135 25 63 50 124 54 135 5 11 33 79 61 150 29 72 72 177 95 235 24 58 42 107
40 110 -2 4 -1069 4 -1133 1 -7 -1 -16 -11 -21 -24 -5 -12 -18 -43 -29 -67
-11 -25 -39 -90 -62 -145 -22 -55 -45 -109 -50 -120 -11 -24 -112 -264 -164
-390 -21 -49 -44 -106 -53 -125 -19 -46 -31 -75 -42 -102 -5 -13 -16 -39 -24
-58 -25 -56 -218 -529 -359 -875 -71 -176 -136 -334 -144 -352 -8 -17 -14 -33
-14 -36 0 -3 -4 -16 -10 -29 -5 -13 -34 -84 -63 -158 l-54 -134 -53 214 c-28
118 -53 222 -55 230 -2 8 -17 71 -35 140 -17 69 -33 134 -36 145 -2 11 -40
166 -84 345 -44 179 -113 456 -151 615 -39 160 -105 425 -146 590 -40 165 -75
309 -77 319 -3 19 -17 20 -594 20 l-591 1 -10 -40 c-6 -22 -49 -197 -96 -390
-47 -192 -126 -516 -176 -720 -50 -203 -93 -380 -95 -392 -2 -12 -33 -138 -68
-280 -93 -378 -166 -675 -170 -698 -8 -38 -19 -80 -24 -89 -3 -5 -45 92 -94
215 -105 263 -443 1096 -473 1164 -7 17 -74 179 -149 360 -76 182 -143 344
-150 360 -8 17 -58 134 -111 260 -54 127 -101 234 -106 239 -6 7 -1149 17
-1149 10z"/>
<path d="M19728 8755 c-2 -2 -37 -5 -78 -6 -41 -1 -86 -5 -100 -9 l-25 -6 -1
-472 c-1 -424 1 -472 15 -476 58 -17 277 -24 356 -11 169 27 293 112 354 245
38 83 42 103 47 230 4 116 -8 178 -51 265 -52 107 -169 194 -301 224 -48 12
-209 23 -216 16z m162 -187 c128 -41 191 -155 184 -334 -4 -123 -44 -211 -119
-260 -48 -31 -180 -51 -212 -31 -4 3 -8 145 -8 317 0 238 3 313 13 319 16 10
97 4 142 -11z"/>
<path d="M390 8411 c2 -343 6 -379 50 -474 60 -127 225 -193 410 -163 63 10
160 61 194 102 33 39 71 130 81 189 5 30 9 482 5 651 0 19 -6 21 -103 21
l-104 0 0 -313 c0 -331 -5 -376 -47 -428 -45 -57 -167 -63 -217 -10 -49 52
-54 95 -54 432 0 361 16 321 -128 320 l-88 -1 1 -326z"/>
<path d="M4360 8261 l0 -477 103 1 102 1 5 302 5 303 92 -123 c50 -68 117
-157 150 -199 32 -41 72 -93 88 -115 17 -21 38 -48 48 -59 10 -11 33 -39 50
-62 37 -49 38 -49 141 -48 l79 0 -1 470 c0 259 -1 473 -1 476 -1 3 -48 6 -106
6 l-105 0 -2 -315 -3 -316 -29 44 c-16 24 -33 49 -38 54 -5 6 -77 103 -160
216 -83 113 -154 207 -157 210 -6 5 -59 73 -73 94 -4 6 -47 12 -98 12 l-90 2
0 -477z"/>
<path d="M8452 8261 l3 -476 100 0 100 0 3 476 2 477 -105 -1 -105 -1 2 -475z"/>
<path d="M11790 8653 c0 -79 1 -83 23 -84 12 0 73 0 135 0 100 1 112 -1 113
-17 0 -9 1 -186 2 -392 l2 -375 95 0 c52 -1 100 1 106 3 8 2 11 106 12 360 0
196 1 372 1 389 l1 33 128 -1 c70 0 135 0 145 0 15 1 17 12 17 84 l0 84 -390
0 -390 0 0 -84z"/>
<path d="M15696 8731 c-2 -6 0 -930 3 -941 1 -4 618 -5 644 -1 4 0 6 38 5 84
l-3 82 -217 0 -218 0 -1 30 c0 16 -1 68 -1 115 l0 85 174 3 174 2 2 85 1 85
-174 0 -173 0 -4 68 c-2 37 -2 83 0 103 l3 37 182 0 c100 0 194 1 210 1 l27 1
0 79 c0 67 -3 80 -17 84 -26 7 -613 5 -617 -2z"/>
</g>
</svg>
