<?xml version="1.0" standalone="no"?>
<!DOCTYPE svg PUBLIC "-//W3C//DTD SVG 20010904//EN"
 "http://www.w3.org/TR/2001/REC-SVG-20010904/DTD/svg10.dtd">
<svg version="1.0" xmlns="http://www.w3.org/2000/svg"
 width="800.000000pt" height="800.000000pt" viewBox="0 0 800.000000 800.000000"
 preserveAspectRatio="xMidYMid meet">
<metadata>
Created by potrace 1.11, written by Peter Selinger 2001-2013
</metadata>
<g transform="translate(0.000000,800.000000) scale(0.100000,-0.100000)"
fill="#000000" stroke="none">
<path d="M3738 5384 c-2 -1 -37 -5 -78 -9 -77 -6 -83 -7 -135 -19 -16 -4 -50
-12 -75 -18 -48 -11 -135 -36 -160 -45 -8 -4 -17 -7 -20 -8 -46 -12 -137 -50
-320 -133 -19 -9 -37 -18 -40 -21 -7 -8 -238 -123 -311 -155 -56 -24 -221 -73
-283 -83 -60 -9 -219 -9 -275 0 -31 5 -63 17 -72 26 -34 35 -79 71 -88 71 -5
0 -11 4 -13 8 -4 11 -156 69 -198 76 -19 3 -44 7 -55 10 -50 10 -197 18 -313
18 -704 -3 -651 -1 -647 -24 6 -28 23 -39 60 -38 9 1 69 -32 80 -44 31 -31 34
-58 34 -370 1 -312 1 -319 23 -349 37 -52 109 -122 183 -177 l70 -52 3 450 2
450 30 12 c16 7 72 14 122 16 190 6 334 -63 412 -196 51 -86 67 -149 68 -263
1 -89 -33 -158 -123 -248 -82 -83 -144 -128 -292 -216 l-116 -70 37 -17 c46
-22 315 -177 322 -185 3 -3 46 -33 95 -66 112 -74 267 -228 318 -315 48 -82
81 -189 81 -260 0 -68 -5 -89 -38 -165 l-26 -60 30 35 c176 206 208 431 87
610 -63 92 -222 229 -429 370 -79 53 -89 64 -65 73 8 3 58 39 113 80 239 180
334 328 340 527 1 57 5 74 15 72 37 -9 196 -2 254 12 11 2 41 9 67 15 146 34
386 137 643 279 325 179 379 206 560 282 93 39 214 68 310 77 44 3 71 9 63 14
-17 9 -243 31 -250 23z"/>
<path d="M3977 5284 c-2 -3 -18 -6 -35 -9 -160 -20 -358 -100 -821 -333 -211
-106 -386 -190 -389 -187 -3 3 -10 1 -16 -4 -36 -29 -359 -107 -392 -94 -7 2
-14 0 -18 -5 -3 -5 0 -9 7 -10 7 0 41 -4 77 -8 160 -17 300 -5 500 44 148 37
356 121 610 247 113 56 311 135 338 134 4 0 27 5 52 10 95 22 258 30 320 16
14 -3 41 -8 60 -11 202 -34 442 -233 551 -457 37 -76 40 -54 4 36 -40 103
-116 255 -161 323 -90 136 -244 250 -389 290 -55 15 -287 29 -298 18z"/>
<path d="M1169 4902 c-18 -2 -28 -10 -31 -25 -8 -41 0 -45 52 -28 75 25 218
17 283 -14 15 -7 27 -9 27 -4 0 8 -63 40 -105 53 -51 15 -172 25 -226 18z"/>
<path d="M749 4811 c-13 -9 -25 -19 -27 -23 -2 -5 -8 -8 -13 -8 -20 0 -119
-114 -143 -164 -37 -76 -51 -171 -36 -253 28 -165 131 -302 321 -429 53 -35
100 -64 106 -64 6 0 22 -9 37 -21 14 -11 26 -17 26 -14 0 4 6 3 13 -2 6 -6 66
-39 132 -73 123 -65 328 -182 369 -213 132 -95 233 -187 293 -263 71 -91 125
-245 118 -334 -4 -48 -28 -125 -47 -147 -8 -10 -8 -12 4 -8 23 9 87 147 103
223 23 109 5 231 -47 324 -18 33 -77 107 -113 142 -74 73 -274 226 -295 226
-6 0 -10 4 -10 8 0 5 -20 19 -45 32 -25 13 -45 27 -45 32 0 4 -4 8 -10 8 -13
0 -301 187 -435 281 -122 87 -214 196 -253 302 -27 70 -35 188 -16 215 7 11
11 22 8 24 -6 6 34 86 47 94 5 3 9 31 9 63 0 63 -8 70 -51 42z"/>
<path d="M2730 4584 c-145 -30 -281 -131 -361 -269 -33 -56 -67 -131 -74 -165
-32 -134 -35 -163 -31 -300 2 -80 6 -155 9 -168 38 -153 57 -204 110 -287 101
-158 260 -234 477 -229 171 3 292 49 400 151 92 86 164 217 186 336 18 101 22
142 22 234 1 360 -138 597 -399 682 -83 27 -244 34 -339 15z m259 -229 c63
-21 137 -90 169 -158 35 -75 69 -270 51 -298 -4 -7 -15 -14 -23 -16 -22 -4
-50 -11 -56 -13 -3 -1 -9 -2 -14 -1 -5 1 -18 -7 -30 -17 -22 -20 -108 -66
-184 -97 -27 -12 -41 -23 -38 -32 5 -13 -5 -17 -32 -14 -8 1 -23 -4 -35 -11
-12 -8 -33 -12 -47 -9 l-25 4 25 7 c29 9 -75 5 -162 -5 -52 -7 -58 -6 -59 11
0 11 -2 28 -5 39 -2 11 -5 63 -6 115 -5 237 54 395 177 476 66 43 196 52 294
19z m205 -541 c-17 -13 -18 -15 -3 -27 13 -10 15 -21 9 -52 -5 -24 -8 -30 -9
-16 -1 15 -6 21 -15 18 -8 -3 -18 5 -25 20 -11 23 -9 29 21 60 18 19 34 29 36
23 2 -6 -4 -18 -14 -26z"/>
<path d="M2750 3740 c-18 -15 -19 -20 -7 -20 9 0 19 5 22 10 4 6 11 8 16 5 5
-4 19 -3 30 0 17 6 19 9 8 16 -22 14 -44 10 -69 -11z"/>
<path d="M5695 4563 c-3 -16 -13 -41 -20 -58 -13 -27 -80 -198 -305 -770 -34
-88 -96 -244 -136 -348 -41 -103 -74 -191 -74 -195 0 -10 257 -8 267 2 4 4 29
67 54 139 l46 132 236 1 236 0 15 -40 c57 -161 80 -222 87 -231 8 -11 254 -14
264 -4 4 5 -33 109 -70 194 -8 17 -61 152 -120 300 -149 378 -184 467 -194
490 -5 11 -44 109 -87 218 l-78 197 -57 0 c-54 0 -57 -2 -64 -27z m150 -655
c43 -134 79 -245 81 -248 3 -7 -313 -6 -321 1 -3 3 29 109 70 235 41 126 75
235 75 242 0 44 25 -17 95 -230z"/>
<path d="M3560 4570 c-5 -3 14 -75 41 -160 28 -85 52 -159 53 -165 2 -5 6 -17
9 -25 6 -15 162 -499 244 -755 25 -77 57 -176 71 -219 l27 -79 49 -1 c46 -1
50 1 61 29 7 17 73 211 146 432 117 351 149 436 149 393 0 -6 32 -101 70 -213
39 -111 72 -209 75 -217 2 -8 34 -100 70 -205 37 -104 69 -197 72 -206 3 -11
17 -15 54 -13 27 1 51 3 53 5 2 2 20 58 40 124 21 66 40 127 43 135 3 8 7 20
9 25 3 13 80 253 108 340 24 73 69 216 71 225 1 5 87 274 141 439 18 58 31
107 29 109 -6 6 -245 5 -251 0 -4 -4 -61 -186 -69 -219 -2 -9 -10 -36 -18 -60
-8 -24 -47 -150 -87 -279 -40 -129 -76 -241 -80 -249 -5 -9 -37 74 -84 215
-42 126 -105 312 -139 413 l-62 184 -53 0 c-29 -1 -54 -2 -56 -4 -2 -2 -62
-182 -135 -399 -72 -217 -134 -402 -137 -410 -7 -20 -26 31 -114 320 -39 129
-78 253 -85 275 -8 22 -26 79 -40 128 l-26 87 -47 0 c-26 1 -80 2 -120 3 -41
1 -78 0 -82 -3z"/>
<path d="M6553 4572 c-18 -2 -33 -9 -34 -15 0 -7 -1 -317 -2 -689 -1 -445 1
-679 8 -681 17 -5 387 0 430 6 97 14 124 20 180 39 171 57 295 179 357 353 14
39 29 90 33 115 3 25 9 59 12 75 3 17 6 77 8 135 6 333 -164 573 -458 648 -68
18 -108 20 -290 19 -117 -1 -227 -3 -244 -5z m508 -241 c99 -37 164 -110 204
-226 17 -48 29 -262 18 -306 -5 -16 -15 -18 -101 -14 -53 3 -112 10 -131 15
-19 5 -39 6 -45 3 -15 -10 -56 -10 -56 -1 0 4 -5 8 -11 8 -5 0 -8 -4 -5 -9 9
-14 -17 -19 -39 -8 -11 6 -33 12 -49 14 -34 4 -48 13 -20 13 13 0 6 8 -21 24
l-40 24 1 239 c1 131 2 241 3 245 4 23 214 8 292 -21z"/>
<path d="M6880 3850 c-21 -13 -10 -19 46 -25 27 -2 42 -1 34 2 -8 3 -17 9 -20
13 -9 14 -45 20 -60 10z"/>
<path d="M830 3559 c0 -213 -4 -347 -10 -359 -12 -23 -43 -41 -79 -46 -14 -2
-37 -6 -51 -8 -14 -3 -29 -5 -33 -5 -4 -1 -4 -9 1 -18 9 -15 38 -17 281 -17
187 -1 272 2 275 10 5 12 -8 36 -18 35 -27 -4 -45 2 -64 19 -22 20 -22 26 -22
298 l0 277 -91 45 c-50 25 -113 59 -140 77 l-49 32 0 -340z"/>
<path d="M2643 2982 c-21 -3 -22 -8 -21 -105 0 -117 9 -156 41 -184 76 -65
219 -50 267 29 17 28 20 50 20 146 0 61 -3 113 -7 113 -12 2 -46 2 -65 1 -14
-2 -17 -14 -17 -79 0 -141 0 -143 -26 -169 -19 -19 -31 -23 -57 -19 -56 9 -65
30 -67 151 0 59 -3 110 -6 113 -7 6 -33 7 -62 3z"/>
<path d="M3539 2976 c-1 -6 -2 -79 -3 -162 l-1 -150 45 0 45 -1 -1 96 c0 53 1
99 2 102 2 4 50 -40 106 -98 56 -57 108 -101 115 -99 7 3 15 1 19 -5 4 -7 10
-6 18 0 7 6 16 8 19 4 4 -3 7 66 7 155 0 101 -4 162 -10 163 -5 1 -21 2 -35 2
-14 0 -29 -1 -35 -2 -6 0 -10 -44 -10 -108 l0 -106 -103 108 c-93 97 -106 108
-140 110 -20 0 -38 -4 -38 -9z"/>
<path d="M4499 2975 c-1 -5 -2 -78 -3 -161 l-1 -150 45 0 45 -1 -1 151 c-1 83
-2 156 -3 161 -1 13 -81 13 -82 0z"/>
<path d="M5137 2980 c-7 -3 -12 -11 -11 -17 1 -7 2 -17 3 -23 0 -5 28 -10 61
-10 l59 0 3 -132 c3 -125 4 -133 23 -133 11 -1 26 -5 34 -9 10 -7 12 -5 6 4
-6 10 -4 12 8 7 15 -6 17 7 17 128 l0 135 65 0 c63 0 65 1 65 25 0 14 -6 26
-12 26 -39 4 -311 3 -321 -1z"/>
<path d="M6004 2975 c-1 -5 -2 -77 -1 -160 2 -126 4 -150 17 -150 8 0 20 -4
27 -8 6 -4 14 -3 17 2 6 10 51 6 69 -6 6 -3 7 -1 3 5 -4 7 1 10 14 9 11 -1 20
-5 20 -10 0 -6 5 -5 13 0 6 5 34 8 60 7 47 -3 48 -3 45 24 -3 27 -4 27 -83 29
-44 1 -88 2 -97 2 -14 1 -18 10 -18 41 0 45 -4 43 103 41 55 -1 57 0 57 24 0
14 -6 26 -12 26 -7 1 -38 3 -68 4 -30 1 -61 3 -67 4 -8 0 -13 15 -13 36 l0 35
96 0 95 0 -3 27 -3 28 -134 0 c-80 0 -135 -4 -137 -10z"/>
<path d="M6843 2984 c-10 -4 -13 -47 -13 -164 l0 -158 30 -7 c37 -8 140 -4
160 6 8 4 28 10 43 14 42 9 97 64 106 108 10 43 0 96 -24 133 -28 43 -98 67
-200 71 -49 1 -96 0 -102 -3z m176 -64 c57 -23 78 -102 44 -161 -19 -31 -58
-49 -109 -49 l-32 0 0 107 c-1 59 1 109 3 112 6 10 62 5 94 -9z"/>
</g>
</svg>
